<svg height="496pt" viewBox="0 -48 496 496" width="496pt" xmlns="http://www.w3.org/2000/svg"><g fill="#f0bc5e"><path d="m376 136h56v128h-56zm0 0"/><path d="m64 200h56v128h-56zm0 0"/><path d="m248 307.960938-69.039062-76.722657c-7.074219-7.839843-10.960938-17.992187-10.960938-28.550781 0-23.535156 19.152344-42.6875 42.6875-42.6875h2.816406c8.464844 0 16.648438 2.480469 23.679688 7.167969l10.816406 7.214843 10.824219-7.207031c7.023437-4.695312 15.214843-7.175781 23.671875-7.175781h2.816406c23.535156 0 42.6875 19.152344 42.6875 42.6875 0 10.558594-3.886719 20.710938-10.960938 28.550781zm0 0"/></g><path d="m0 0v400h496v-400zm480 16v48h-464v-48zm-464 368v-304h464v304zm0 0"/><path d="m32 32h16v16h-16zm0 0"/><path d="m64 32h16v16h-16zm0 0"/><path d="m96 32h16v16h-16zm0 0"/><path d="m240 128h-104v32h-104v208h224v-32h104v-32h104v-208h-224zm0 224h-192v-176h88v160h104zm104-32h-192v-176h192zm104-208v176h-88v-160h-104v-16zm0 0"/><path d="m64 192h56v16h-56zm0 0"/><path d="m64 224h56v16h-56zm0 0"/><path d="m64 256h56v16h-56zm0 0"/><path d="m64 288h56v16h-56zm0 0"/><path d="m64 320h56v16h-56zm0 0"/><path d="m376 128h56v16h-56zm0 0"/><path d="m376 160h56v16h-56zm0 0"/><path d="m376 192h56v16h-56zm0 0"/><path d="m376 224h56v16h-56zm0 0"/><path d="m376 256h56v16h-56zm0 0"/></svg>